<svg width="24" height="24" viewBox="0 0 24 24" fill="none" xmlns="http://www.w3.org/2000/svg">
<path d="M14.9998 22L14.5838 22.624C14.6968 22.6993 14.828 22.7425 14.9636 22.7491C15.0992 22.7556 15.234 22.7253 15.3537 22.6612C15.4734 22.5972 15.5734 22.5019 15.6432 22.3854C15.713 22.269 15.7498 22.1358 15.7498 22H14.9998ZM11.9998 20L12.4158 19.376C12.2926 19.2939 12.1479 19.2501 11.9998 19.2501C11.8518 19.2501 11.707 19.2939 11.5838 19.376L11.9998 20ZM8.99983 22H8.24983C8.24984 22.1358 8.28668 22.269 8.35645 22.3854C8.42621 22.5019 8.52626 22.5972 8.64594 22.6612C8.76562 22.7253 8.90045 22.7556 9.03603 22.7491C9.17161 22.7425 9.30288 22.6993 9.41583 22.624L8.99983 22ZM15.4158 21.376L12.4158 19.376L11.5838 20.624L14.5838 22.624L15.4158 21.376ZM11.5838 19.376L8.58383 21.376L9.41583 22.624L12.4158 20.624L11.5838 19.376ZM12.9518 3.27602L12.9938 3.32602L14.1368 2.35402L14.0938 2.30402L12.9518 3.27602ZM15.3088 4.28502L15.3738 4.27902L15.2538 2.78402L15.1888 2.79002L15.3088 4.28502ZM16.7208 5.62502L16.7148 5.69102L18.2098 5.81102L18.2158 5.74602L16.7208 5.62502ZM17.6738 8.00502L17.7238 8.04802L18.6958 6.90602L18.6458 6.86302L17.6738 8.00502ZM17.7238 9.95202L17.6738 9.99402L18.6458 11.137L18.6958 11.094L17.7238 9.95202ZM16.7148 12.309L16.7208 12.374L18.2158 12.254L18.2098 12.189L16.7148 12.309ZM15.3748 13.721L15.3088 13.715L15.1888 15.21L15.2538 15.216L15.3748 13.721ZM12.9948 14.674L12.9518 14.724L14.0938 15.696L14.1368 15.646L12.9948 14.674ZM11.0478 14.724L11.0048 14.674L9.86283 15.646L9.90583 15.696L11.0478 14.724ZM8.69083 13.715L8.62583 13.72L8.74583 15.216L8.81083 15.211L8.69083 13.715ZM7.27883 12.375L7.28483 12.309L5.78983 12.189L5.78383 12.254L7.27883 12.375ZM6.32583 9.99502L6.27583 9.95202L5.30383 11.094L5.35383 11.137L6.32583 9.99502ZM6.27583 8.04802L6.32583 8.00502L5.35383 6.86302L5.30383 6.90602L6.27583 8.04802ZM7.28483 5.69102L7.27883 5.62602L5.78383 5.74602L5.78983 5.81102L7.28483 5.69102ZM8.62483 4.27902L8.69083 4.28502L8.81083 2.79002L8.74583 2.78402L8.62483 4.27902ZM11.0048 3.32602L11.0478 3.27602L9.90583 2.30402L9.86283 2.35402L11.0048 3.32602ZM8.69083 4.28502C9.12516 4.31985 9.56155 4.25097 9.96404 4.08407C10.3665 3.91716 10.7236 3.657 11.0058 3.32502L9.86283 2.35402C9.73453 2.50482 9.57226 2.62298 9.38936 2.69878C9.20646 2.77458 9.00817 2.80585 8.81083 2.79002L8.69083 4.28502ZM7.27883 5.62602C7.26448 5.44558 7.28949 5.26317 7.35214 5.09334C7.41479 4.9235 7.51357 4.76931 7.64167 4.6414C7.76976 4.5135 7.9241 4.41494 8.09403 4.35255C8.26395 4.29015 8.4454 4.26541 8.62583 4.28002L8.74583 2.78502C8.34873 2.75303 7.94942 2.80769 7.57553 2.94522C7.20164 3.08276 6.8621 3.29989 6.5804 3.5816C6.2987 3.8633 6.08156 4.20284 5.94403 4.57673C5.80649 4.95062 5.75183 5.34993 5.78383 5.74702L7.27883 5.62602ZM6.32583 8.00502C6.65747 7.7228 6.91736 7.36585 7.08408 6.96355C7.25081 6.56125 7.31961 6.12511 7.28483 5.69102L5.78983 5.81102C5.82183 6.21102 5.65983 6.60302 5.35383 6.86302L6.32583 8.00502ZM6.27583 9.95202C6.13792 9.83468 6.02715 9.68877 5.95119 9.52439C5.87523 9.36002 5.83588 9.1811 5.83588 9.00002C5.83588 8.81895 5.87523 8.64003 5.95119 8.47566C6.02715 8.31128 6.13792 8.16537 6.27583 8.04802L5.30383 6.90602C5.00056 7.16419 4.75699 7.48514 4.58996 7.84669C4.42293 8.20824 4.33643 8.60176 4.33643 9.00002C4.33643 9.39829 4.42293 9.79181 4.58996 10.1534C4.75699 10.5149 5.00056 10.8359 5.30383 11.094L6.27583 9.95202ZM7.28483 12.309C7.31965 11.8747 7.25078 11.4383 7.08387 11.0358C6.91696 10.6333 6.6568 10.2762 6.32483 9.99402L5.35383 11.137C5.65983 11.397 5.82183 11.789 5.78983 12.189L7.28483 12.309ZM8.62483 13.721C8.4443 13.7355 8.26278 13.7106 8.09282 13.648C7.92287 13.5855 7.76854 13.4867 7.64053 13.3586C7.51251 13.2305 7.41386 13.0761 7.35141 12.9061C7.28896 12.7361 7.26419 12.5545 7.27883 12.374L5.78383 12.254C5.75183 12.6511 5.80649 13.0504 5.94403 13.4243C6.08156 13.7982 6.2987 14.1378 6.5804 14.4195C6.8621 14.7012 7.20164 14.9183 7.57553 15.0558C7.94942 15.1934 8.34873 15.248 8.74583 15.216L8.62483 13.721ZM12.9518 14.724C12.8345 14.8619 12.6886 14.9727 12.5242 15.0487C12.3598 15.1246 12.1809 15.164 11.9998 15.164C11.8187 15.164 11.6398 15.1246 11.4755 15.0487C11.3111 14.9727 11.1652 14.8619 11.0478 14.724L9.90583 15.696C10.164 15.9993 10.4849 16.2429 10.8465 16.4099C11.208 16.5769 11.6016 16.6634 11.9998 16.6634C12.3981 16.6634 12.7916 16.5769 13.1532 16.4099C13.5147 16.2429 13.8357 15.9993 14.0938 15.696L12.9518 14.724ZM16.7208 12.374C16.7353 12.5546 16.7104 12.7361 16.6478 12.906C16.5853 13.076 16.4865 13.2303 16.3584 13.3583C16.2303 13.4863 16.0759 13.585 15.9059 13.6474C15.7359 13.7099 15.5543 13.7347 15.3738 13.72L15.2538 15.216C15.6509 15.248 16.0502 15.1934 16.4241 15.0558C16.798 14.9183 17.1376 14.7012 17.4193 14.4195C17.701 14.1378 17.9181 13.7982 18.0556 13.4243C18.1932 13.0504 18.2478 12.6511 18.2158 12.254L16.7208 12.374ZM17.6738 9.99402C17.342 10.2764 17.0821 10.6335 16.9153 11.0359C16.7486 11.4384 16.6799 11.8748 16.7148 12.309L18.2098 12.189C18.1778 11.789 18.3398 11.397 18.6458 11.137L17.6738 9.99402ZM17.7238 8.04802C17.8617 8.16537 17.9725 8.31128 18.0485 8.47566C18.1244 8.64003 18.1638 8.81895 18.1638 9.00002C18.1638 9.1811 18.1244 9.36002 18.0485 9.52439C17.9725 9.68877 17.8617 9.83468 17.7238 9.95202L18.6958 11.094C18.9991 10.8359 19.2427 10.5149 19.4097 10.1534C19.5767 9.79181 19.6632 9.39829 19.6632 9.00002C19.6632 8.60176 19.5767 8.20824 19.4097 7.84669C19.2427 7.48514 18.9991 7.16419 18.6958 6.90602L17.7238 8.04802ZM16.7148 5.69102C16.68 6.12536 16.7489 6.56175 16.9158 6.96424C17.0827 7.36673 17.3429 7.7238 17.6748 8.00602L18.6458 6.86302C18.495 6.73473 18.3769 6.57246 18.3011 6.38956C18.2253 6.20666 18.194 6.00837 18.2098 5.81102L16.7148 5.69102ZM15.3748 4.27902C15.5554 4.26452 15.7369 4.28942 15.9068 4.352C16.0768 4.41458 16.2311 4.51334 16.3591 4.64146C16.4871 4.76957 16.5858 4.92397 16.6482 5.09397C16.7107 5.26397 16.7355 5.44451 16.7208 5.62502L18.2158 5.74602C18.2478 5.34893 18.1932 4.94962 18.0556 4.57573C17.9181 4.20184 17.701 3.8623 17.4193 3.5806C17.1376 3.29889 16.798 3.08176 16.4241 2.94422C16.0502 2.80669 15.6509 2.75203 15.2538 2.78402L15.3748 4.27902ZM12.9938 3.32602C13.276 3.65767 13.634 3.91756 14.0363 4.08428C14.4386 4.25101 14.8747 4.31981 15.3088 4.28502L15.1888 2.79002C14.9915 2.80585 14.7932 2.77458 14.6103 2.69878C14.4274 2.62298 14.2651 2.50482 14.1368 2.35402L12.9938 3.32602ZM14.0948 2.30402C13.8367 2.00042 13.5156 1.75655 13.1539 1.58931C12.7921 1.42207 12.3984 1.33545 11.9998 1.33545C11.6013 1.33545 11.2075 1.42207 10.8458 1.58931C10.4841 1.75655 10.163 2.00042 9.90483 2.30402L11.0478 3.27602C11.1652 3.13812 11.3111 3.02735 11.4755 2.95139C11.6398 2.87543 11.8187 2.83608 11.9998 2.83608C12.1809 2.83608 12.3598 2.87543 12.5242 2.95139C12.6886 3.02735 12.8345 3.13812 12.9518 3.27602L14.0948 2.30402ZM11.0048 14.674C10.76 14.3864 10.4586 14.1522 10.1193 13.9862C9.78002 13.8202 9.41018 13.7258 9.03283 13.709L8.96683 15.208C9.31083 15.223 9.63683 15.38 9.86283 15.646L11.0048 14.674ZM9.03283 13.709C8.9188 13.7045 8.80462 13.7065 8.69083 13.715L8.81083 15.21C8.86283 15.206 8.91483 15.2054 8.96683 15.208L9.03283 13.709ZM9.74983 22V14.458H8.24983V22H9.74983ZM15.3098 13.715C15.1957 13.7065 15.0812 13.7045 14.9668 13.709L15.0328 15.208C15.0848 15.2054 15.1368 15.206 15.1888 15.21L15.3098 13.715ZM14.9668 13.709C14.5893 13.7257 14.2193 13.82 13.8798 13.986C13.5403 14.152 13.2397 14.3862 12.9948 14.674L14.1368 15.646C14.2481 15.5154 14.3851 15.4091 14.5393 15.3338C14.6934 15.2584 14.8614 15.2156 15.0328 15.208L14.9668 13.709ZM14.2498 14.459V22H15.7498V14.458L14.2498 14.459Z" fill="#767676"/>
<path d="M14 8L11 11L10 10" stroke="#767676" stroke-width="1.5" stroke-linecap="round" stroke-linejoin="round"/>
</svg>
