<svg width="24" height="24" viewBox="0 0 24 24" fill="none" xmlns="http://www.w3.org/2000/svg">
<path d="M4.5 9.63158H19.5M12.7895 12.7895H15.9474M12.7895 15.9474H14.3684M8.05263 7.26316H8.05974M11.2105 7.26316H11.2176M9.63158 9.63158V19.5M4.5 12C4.5 8.46474 4.5 6.69632 5.59816 5.59816C6.69632 4.5 8.46395 4.5 12 4.5C15.5353 4.5 17.3037 4.5 18.4018 5.59816C19.5 6.69632 19.5 8.46395 19.5 12C19.5 15.5353 19.5 17.3037 18.4018 18.4018C17.3037 19.5 15.5361 19.5 12 19.5C8.46474 19.5 6.69632 19.5 5.59816 18.4018C4.5 17.3037 4.5 15.5361 4.5 12Z" stroke="#767676" stroke-linecap="round" stroke-linejoin="round"/>
</svg>
