<svg width="60" height="60" viewBox="0 0 60 60" fill="none" xmlns="http://www.w3.org/2000/svg">
<path d="M17.625 30C23.8125 30 30 23.8125 30 17.625C30 23.8125 36.1875 30 42.375 30C36.1875 30 30 36.1875 30 42.375C30 36.1875 23.8125 30 17.625 30ZM16.25 40.3125C17.3954 40.3125 19.6875 38.0204 19.6875 36.875C19.6875 38.0204 21.9796 40.3125 23.125 40.3125C21.9796 40.3125 19.6875 42.6046 19.6875 43.75C19.6875 42.6046 17.3954 40.3125 16.25 40.3125ZM35.5 20.375C36.875 20.375 39.625 17.625 39.625 16.25C39.625 17.625 42.375 20.375 43.75 20.375C42.375 20.375 39.625 23.125 39.625 24.5C39.625 23.125 36.875 20.375 35.5 20.375Z" stroke="#F86341" stroke-width="2.25" stroke-linecap="round" stroke-linejoin="round"/>
<circle cx="30" cy="30" r="28.5" stroke="#F86341" stroke-width="3"/>
</svg>
