<svg width="497" height="790" viewBox="0 0 497 790" fill="none" xmlns="http://www.w3.org/2000/svg">
<g clip-path="url(#clip0_1416_9545)">
<path d="M114.41 728.49C114.41 709.34 120.6 693.6 132.98 681.27C145.36 668.93 160.84 662.76 179.41 662.76C196.43 662.76 211 668.93 223.12 681.27C235.23 693.61 241.3 709.34 241.3 728.49C241.3 745.11 235.23 759.46 223.12 771.55C210.99 783.64 196.43 789.68 179.41 789.68C160.84 789.68 145.36 783.63 132.98 771.55C120.6 759.46 114.41 745.11 114.41 728.49ZM259.1 728.49C259.1 709.34 265.16 693.6 277.28 681.27C289.39 668.93 303.97 662.76 320.99 662.76C339.56 662.76 355.04 668.93 367.42 681.27C379.79 693.61 385.99 709.34 385.99 728.49C385.99 745.11 379.79 759.46 367.42 771.55C355.04 783.64 339.56 789.68 320.99 789.68C303.97 789.68 289.39 783.63 277.28 771.55C265.15 759.46 259.1 745.11 259.1 728.49Z" fill="#F96441"/>
<path d="M128.45 407.01C120.73 386.4 116.82 361.36 116.82 332.6V128.9C116.82 64.1799 64.3501 11.71 -0.369873 11.71H-0.379883V185.62C-0.379883 268.47 21.2901 332.15 64.0302 374.89C79.9502 390.81 99.0901 403.97 120.92 414.02L133.19 419.66L128.46 407.01H128.45Z" fill="#F96441"/>
<path d="M496.771 11.7004C432.051 11.7004 379.58 64.1704 379.58 128.89V332.59C379.58 361.14 375.59 386.07 367.71 406.69L362.811 419.52L375.26 413.71C396.9 403.61 415.961 390.4 431.921 374.44C474.951 331.41 496.771 267.87 496.771 185.6V11.6904V11.7004Z" fill="#F96441"/>
<path d="M340.85 567.411C320.02 543.191 288.54 508.571 255.06 486.581C251.27 488.241 247.32 489.421 243.44 490.041L242.94 490.121C239.21 497.621 233.47 506.581 225.4 512.401C219.96 516.341 213.54 518.381 206.3 518.441C198.88 518.511 192.08 516.421 187.69 514.661C184.58 513.401 182.12 510.921 180.9 507.841C179.67 504.741 179.76 501.221 181.16 498.191L199.01 459.471C200.7 455.771 203.5 452.721 207.1 450.681L234.08 435.301L218.42 428.231C215.56 426.941 212.22 426.911 209.25 428.131C192.13 435.251 168.91 439.201 158.76 440.691C154.21 441.781 151.2 440.681 149.34 440.281L140.34 436.841L139.98 436.701L137.55 435.751C136.75 435.491 135.95 435.231 135.16 434.961C132.44 434.041 129.76 433.081 127.11 432.071C127.11 432.071 127.11 432.071 127.11 432.061C124.36 431.021 121.64 429.931 118.96 428.811C118.19 428.491 117.44 428.161 116.68 427.831C115.93 427.511 115.18 427.181 114.44 426.851C113.84 426.591 113.25 426.321 112.65 426.051C112.5 425.981 112.36 425.911 112.21 425.851C89.1199 415.291 68.9298 401.431 51.9698 384.481C29.6098 362.121 12.6199 334.211 1.47986 301.511C0.839858 299.641 0.219883 297.751 -0.370117 295.841V329.791C-0.370117 374.311 5.91991 412.951 18.5299 445.691C28.9499 472.771 43.6699 495.831 62.7099 514.871C72.2399 524.401 82.7999 532.841 94.3699 540.211C101.26 544.591 108.51 548.591 116.11 552.221L116.7 551.441C117.6 550.361 118.51 549.201 119.51 547.801L119.69 547.551C121.77 544.821 126.14 540.131 131.96 539.301L133.6 539.061L134.49 538.961C134.88 538.921 135.39 538.891 135.92 538.891C136.35 538.891 136.78 538.891 137.21 538.921C138.7 539.041 140.05 539.291 141.39 539.681C142.9 540.151 144.25 540.751 145.53 541.511L149.46 543.891C152.47 545.651 154.97 548.271 156.62 551.331C158.1 549.711 159.54 548.021 160.93 546.231C162.77 543.741 168.26 538.631 174.87 538.551H176.56H177.29C178.26 538.581 179.19 538.681 180.12 538.851C181.56 539.141 182.87 539.551 184.15 540.091C185.5 540.671 186.7 541.371 187.81 542.181L191.74 544.821L191.92 544.961C195.76 547.811 198.39 552.011 199.25 556.491C200.43 556.181 201.64 555.991 202.84 555.991H203.38L205.09 556.061L205.84 556.101C206.8 556.181 207.73 556.321 208.64 556.531C210.03 556.871 211.32 557.331 212.57 557.921C213.88 558.561 215.02 559.281 216.08 560.111L220.23 563.051L220.46 563.231C224.87 566.801 227.49 572.151 227.48 577.551V579.751L229.14 579.951C230.06 580.091 230.97 580.301 231.89 580.571C233.27 581.021 234.52 581.561 235.73 582.231C237.1 583.011 238.29 583.891 239.37 584.901L243.17 588.731C247.26 592.601 249.43 598.071 248.97 603.401L248.66 606.901C248.41 609.661 247.54 612.181 246.07 614.401C245.57 615.151 245.01 615.851 244.4 616.501C242.15 618.741 240.44 620.471 238.95 621.991C237.98 622.971 237.09 623.871 236.24 624.721L238.6 626.171L250.45 630.971C250.45 630.971 255.9 632.761 260.42 633.941C263.72 634.801 267.22 634.091 269.95 632.051L272.52 628.821C273.75 626.711 274.84 623.381 272.51 621.851C260.74 614.161 254.92 608.871 249.84 603.861C249.84 603.861 250.21 598.171 255.12 602.071C259.95 605.911 256.08 606.151 267.78 612.931C273.3 615.941 278.93 618.751 284.28 621.251C287.51 622.761 291.28 622.361 294.12 620.221L298.74 615.461C300.82 612.331 300.49 607.911 297.87 606.011C285.08 596.751 283.46 595.341 274.38 586.671C274.38 586.671 275.22 580.111 281.05 584.791C286.76 589.351 282.25 589.791 295.8 597.761C299.86 599.911 303.95 601.771 309.02 603.731C311.85 604.831 315 604.541 317.42 602.701L322.62 596.901C324.59 593.791 322.17 588.541 320.53 586.841C319.93 586.221 319.78 585.921 318.11 584.561C305.42 574.231 291.7 561.931 284.13 553.231C284.13 553.231 285.48 546.631 291.58 552.421C297.15 557.691 292.98 557.861 304.14 566.151C310.64 570.721 317.46 575.281 324.2 579.511C327.47 581.561 331.67 581.471 334.84 579.271L341.35 572.951C342.18 572.361 342.55 571.031 342.64 569.551L340.83 567.451L340.85 567.411Z" fill="#F96441"/>
<path d="M496.77 294.99V329.77C496.77 366.99 492.27 400.13 483.28 429.19C472.77 463.19 456.09 491.61 433.26 514.44C427.19 520.51 420.74 526.14 413.88 531.33C395.45 545.31 374.15 556.14 350.01 563.83L349.3 563.01C348.81 562.43 348.31 561.86 347.81 561.29C326.46 536.47 294.39 501.29 260.03 478.76C264.6 474.21 268.75 469.12 271.91 463.55C266.95 468.69 261.28 472.76 255.08 476.22L254.26 476.67C249.27 479.35 244.84 480.43 241.98 480.88C242.54 475.72 242.71 470.61 242.5 465.54C240.94 471.27 238.9 476.85 236.43 482.07H236.46L236.12 482.84C233 489.83 227.68 499.32 219.98 504.88C210.13 512.02 197.68 508.68 191.14 506.06C189.84 505.54 189.07 504.19 189.34 502.57L207.42 463.34C208.31 461.38 209.78 459.79 211.67 458.72L253.91 434.64C256.24 433.32 258.94 432.91 261.54 433.5C279.2 437.56 321.09 445.91 345.87 440.69C348.71 439.85 351.22 439.03 353.43 438.25L353.59 438.18L365.07 433.46L367.26 432.56C367.76 432.37 368.27 432.18 368.77 431.99C368.77 431.99 368.77 431.99 368.77 431.98C398.03 420.8 423.31 404.71 443.98 384.03C466.48 361.53 483.57 333.59 494.79 300.97C495.46 299 496.12 297 496.76 294.99H496.77ZM233.04 591.63C232.48 591.11 231.88 590.67 231.24 590.3C230.56 589.92 229.87 589.62 229.19 589.4C228.72 589.26 228.25 589.15 227.79 589.08C227.66 589.06 227.54 589.05 227.41 589.03L225.71 588.85C223.33 588.6 219.84 590.52 218.34 592.04C210.14 599.17 203.23 603.78 194.16 609.21C201.63 602.41 209.17 594.29 216.77 585.24C216.99 584.96 217.21 584.64 217.39 584.31C217.92 583.34 218.19 582.23 218.2 581.02L218.22 577.49C218.22 574.87 216.89 572.23 214.64 570.41L210.5 567.48C209.91 566.99 209.28 566.59 208.62 566.27C207.92 565.94 207.22 565.69 206.53 565.52C206.05 565.41 205.59 565.34 205.12 565.3C204.99 565.3 204.87 565.28 204.75 565.28L203.06 565.22C200.7 565.14 197.42 567.35 196.06 568.99C186.29 580.21 175.39 587.52 164.97 595.3C173.05 587.54 181.13 577.99 189.22 567.2C189.42 566.91 189.62 566.58 189.79 566.23C190.26 565.23 190.48 564.1 190.43 562.88L190.27 559.32C190.15 556.69 188.69 554.08 186.37 552.36L182.44 549.72C181.83 549.26 181.19 548.88 180.52 548.59C179.81 548.29 179.1 548.07 178.41 547.93C177.93 547.84 177.47 547.79 177 547.78C176.88 547.78 176.75 547.78 176.63 547.78L174.95 547.8C172.6 547.83 169.46 550.2 168.19 551.91C161.11 560.99 153.12 567.7 145.21 574.1C146.25 572.24 147.43 569.92 149.41 566.45C149.57 566.13 149.72 565.77 149.83 565.4C150.15 564.33 150.21 563.16 150 561.93L149.36 558.35C148.89 555.7 147.11 553.25 144.63 551.8L140.78 549.47C140.12 549.08 139.45 548.78 138.76 548.57C138.03 548.36 137.31 548.22 136.62 548.17C136.14 548.14 135.68 548.15 135.23 548.19C135.11 548.2 134.99 548.22 134.87 548.23L133.24 548.46C130.96 548.79 128.44 551.31 127.02 553.16C122.11 560.05 118.76 562.09 114.72 569.18C113.85 570.83 114.38 577.04 116.53 578.3L124.58 583.49C127.19 585.13 129.52 585.64 131.5 585.58C130.45 587.16 130.78 592.34 132.74 593.81L141.58 601.06C147 605.36 153.92 602.96 157.68 601.06C156.67 602.77 156.8 607.58 158.64 609.07L167.18 616.66C174 622.52 183.88 617.29 185.85 616.15C185.56 618.17 185.83 620.66 186.99 621.74L194.99 629.85C202.13 636.85 214.27 630.55 214.27 630.55C225.04 623.55 226.28 621.42 237.65 610.11C237.89 609.85 238.14 609.55 238.35 609.24C238.96 608.32 239.32 607.25 239.43 606.06L239.73 602.58C239.95 600 238.81 597.3 236.69 595.34L233.02 591.62L233.04 591.63Z" fill="#F96441"/>
</g>
<defs>
<clipPath id="clip0_1416_9545">
<rect width="497" height="790" fill="white"/>
</clipPath>
</defs>
</svg>
