<svg width="86" height="74" viewBox="0 0 86 74" fill="none" xmlns="http://www.w3.org/2000/svg">
<path d="M32.3332 31.6667H10.9998C9.58535 31.6667 8.2288 31.1048 7.2286 30.1046C6.22841 29.1044 5.6665 27.7478 5.6665 26.3333V10.3333C5.6665 8.91885 6.22841 7.56229 7.2286 6.5621C8.2288 5.5619 9.58535 5 10.9998 5H26.9998C28.4143 5 29.7709 5.5619 30.7711 6.5621C31.7713 7.56229 32.3332 8.91885 32.3332 10.3333V42.3333C32.3332 56.5556 25.2221 65.4444 10.9998 69M80.3332 31.6667H58.9998C57.5853 31.6667 56.2288 31.1048 55.2286 30.1046C54.2284 29.1044 53.6665 27.7478 53.6665 26.3333V10.3333C53.6665 8.91885 54.2284 7.56229 55.2286 6.5621C56.2288 5.5619 57.5853 5 58.9998 5H74.9998C76.4143 5 77.7709 5.5619 78.7711 6.5621C79.7713 7.56229 80.3332 8.91885 80.3332 10.3333V42.3333C80.3332 56.5556 73.2221 65.4444 58.9998 69" stroke="#F86341" stroke-width="10" stroke-linecap="round" stroke-linejoin="round"/>
</svg>
