<svg width="24" height="24" viewBox="0 0 24 24" fill="none" xmlns="http://www.w3.org/2000/svg">
<path d="M8 12L11.4286 14.8571L16 9.14286M12 20C10.9494 20 9.90914 19.7931 8.93853 19.391C7.96793 18.989 7.08601 18.3997 6.34315 17.6569C5.60028 16.914 5.011 16.0321 4.60896 15.0615C4.20693 14.0909 4 13.0506 4 12C4 10.9494 4.20693 9.90914 4.60896 8.93853C5.011 7.96793 5.60028 7.08601 6.34315 6.34315C7.08601 5.60028 7.96793 5.011 8.93853 4.60896C9.90914 4.20693 10.9494 4 12 4C14.1217 4 16.1566 4.84285 17.6569 6.34315C19.1571 7.84344 20 9.87827 20 12C20 14.1217 19.1571 16.1566 17.6569 17.6569C16.1566 19.1571 14.1217 20 12 20Z" stroke="#767676"/>
</svg>
