<svg width="60" height="60" viewBox="0 0 60 60" fill="none" xmlns="http://www.w3.org/2000/svg">
<path d="M30 57.75C24.4374 57.75 18.9997 56.1005 14.3746 53.0101C9.74946 49.9197 6.14461 45.5271 4.0159 40.388C1.88719 35.2488 1.33022 29.5938 2.41543 24.1381C3.50064 18.6824 6.17928 13.671 10.1126 9.73763C14.046 5.80428 19.0574 3.12564 24.5131 2.04043C29.9688 0.955217 35.6238 1.51219 40.763 3.6409C45.9021 5.76961 50.2947 9.37446 53.3851 13.9996C56.4755 18.6247 58.125 24.0624 58.125 29.625C58.1168 37.0817 55.151 44.2306 49.8783 49.5033C44.6056 54.776 37.4567 57.7418 30 57.75ZM30 4.3312C24.9974 4.3312 20.1071 5.81465 15.9475 8.59397C11.788 11.3733 8.546 15.3236 6.63157 19.9455C4.71715 24.5673 4.21624 29.6531 5.19221 34.5596C6.16818 39.4661 8.57718 43.973 12.1146 47.5104C15.652 51.0478 20.1589 53.4568 25.0654 54.4328C29.9719 55.4088 35.0577 54.9079 39.6795 52.9934C44.3014 51.079 48.2517 47.837 51.031 43.6775C53.8104 39.518 55.2938 34.6277 55.2938 29.625C55.2863 22.919 52.619 16.4897 47.8772 11.7479C43.1353 7.00597 36.706 4.33869 30 4.3312Z" fill="#F86341"/>
<path d="M37.125 34.2665C37.1205 35.7738 36.5185 37.2181 35.4505 38.284C34.3825 39.3498 32.9353 39.9506 31.425 39.9551V42.8278C31.425 43.205 31.2749 43.5668 31.0076 43.8335C30.7404 44.1002 30.3779 44.25 30 44.25C29.6221 44.25 29.2596 44.1002 28.9924 43.8335C28.7251 43.5668 28.575 43.205 28.575 42.8278V39.9551H25.0125C24.6346 39.9551 24.2721 39.8053 24.0049 39.5386C23.7376 39.2718 23.5875 38.9101 23.5875 38.5329C23.5875 38.1558 23.7376 37.794 24.0049 37.5273C24.2721 37.2606 24.6346 37.1108 25.0125 37.1108H31.425C32.1809 37.1108 32.9058 36.8111 33.4403 36.2777C33.9747 35.7443 34.275 35.0208 34.275 34.2665C34.275 33.5121 33.9747 32.7886 33.4403 32.2552C32.9058 31.7218 32.1809 31.4222 31.425 31.4222H28.575C27.0633 31.4222 25.6134 30.8228 24.5445 29.756C23.4755 28.6892 22.875 27.2422 22.875 25.7335C22.875 24.2248 23.4755 22.7779 24.5445 21.7111C25.6134 20.6442 27.0633 20.0449 28.575 20.0449V17.1722C28.575 16.795 28.7251 16.4332 28.9924 16.1665C29.2596 15.8998 29.6221 15.75 30 15.75C30.3779 15.75 30.7404 15.8998 31.0076 16.1665C31.2749 16.4332 31.425 16.795 31.425 17.1722V20.0449H34.9875C35.3654 20.0449 35.7279 20.1947 35.9951 20.4614C36.2624 20.7282 36.4125 21.0899 36.4125 21.4671C36.4125 21.8442 36.2624 22.206 35.9951 22.4727C35.7279 22.7394 35.3654 22.8892 34.9875 22.8892H28.575C27.8191 22.8892 27.0942 23.1889 26.5597 23.7223C26.0253 24.2557 25.725 24.9792 25.725 25.7335C25.725 26.4879 26.0253 27.2114 26.5597 27.7448C27.0942 28.2782 27.8191 28.5778 28.575 28.5778H31.425C32.9353 28.5823 34.3825 29.1831 35.4505 30.249C36.5185 31.3148 37.1205 32.7591 37.125 34.2665Z" fill="#F86341"/>
</svg>
