<svg width="86" height="74" viewBox="0 0 86 74" fill="none" xmlns="http://www.w3.org/2000/svg">
<path d="M53.6668 42.3333L75.0002 42.3333C76.4147 42.3333 77.7712 42.8952 78.7714 43.8954C79.7716 44.8956 80.3335 46.2522 80.3335 47.6667L80.3335 63.6667C80.3335 65.0812 79.7716 66.4377 78.7714 67.4379C77.7712 68.4381 76.4147 69 75.0002 69L59.0002 69C57.5857 69 56.2291 68.4381 55.2289 67.4379C54.2287 66.4377 53.6668 65.0812 53.6668 63.6667L53.6668 31.6667C53.6668 17.4444 60.7779 8.55555 75.0002 5M5.66684 42.3333L27.0002 42.3333C28.4147 42.3333 29.7712 42.8952 30.7714 43.8954C31.7716 44.8956 32.3335 46.2522 32.3335 47.6667L32.3335 63.6667C32.3335 65.0812 31.7716 66.4377 30.7714 67.4379C29.7712 68.4381 28.4147 69 27.0002 69L11.0002 69C9.58568 69 8.22912 68.4381 7.22893 67.4379C6.22873 66.4377 5.66683 65.0811 5.66683 63.6667L5.66684 31.6667C5.66684 17.4444 12.7779 8.55555 27.0002 4.99999" stroke="#F86341" stroke-width="10" stroke-linecap="round" stroke-linejoin="round"/>
</svg>
